<?xml version="1.0"?>
<svg width="1240" height="200" xmlns="http://www.w3.org/2000/svg" xmlns:svg="http://www.w3.org/2000/svg" xmlns:xlink="http://www.w3.org/1999/xlink" enable-background="new 0 0 1287.3 341.4" version="1.1" xml:space="preserve">
 <style type="text/css">.st0{fill:#231F20;}
	.st1{fill:#689AFB;}
	.st2{fill:#B4B4B4;}
	.st3{fill:#999999;}
	.st4{fill:#679CF8;}</style>
 <g class="layer">
  <title>Layer 1</title>
  <polygon class="st0" id="svg_1" points="130.3000030517578,108.5 130.3000030517578,108.5 130.3000030517578,108.5 "/>
  <g id="svg_2">
   <g id="svg_3">
    <path class="st1" d="m176.8,108.8" id="svg_4"/>
    <g id="svg_5">
     <g id="svg_6">
      <path class="st2" d="m239.1,13.2c-35.9,0 -65,28.6 -65,63.8s29.1,63.8 65,63.8c35.9,0 65,-28.6 65,-63.8s-29.1,-63.8 -65,-63.8zm-14.9,20.5c0,0 41.6,18.3 68.6,16.7c0,0 -11.6,13.7 -45.4,5.9c-33.9,-7.9 -50.2,-27.4 -50.2,-27.4s34.4,16.2 55.1,17.9c0,0 -18.7,-2.5 -28.1,-13.1zm20.3,84.1c-34.6,-3.4 -53.5,-20.6 -53.5,-20.6s36.3,11.6 57,10.6c0,0 -18.9,0 -29.6,-9.3c0,0 43.7,12.8 70.3,7.7c0,-0.1 -9.6,15 -44.2,11.6zm-5.1,-27.9c-39.7,-9.5 -58.8,-34 -58.8,-34s40.3,20 64.6,21.9c0,0 -22,-2.9 -32.9,-16.1c0,0 48.8,22.6 80.5,20.3c0.1,0 -13.7,17.4 -53.4,7.9z" id="svg_7"/>
     </g>
    </g>
    <g id="svg_8">
     <path class="st1" d="m122,122.6c1.1,0.2 3.8,0.3 9.7,-0.9c11.8,-2.3 38.5,0 57.7,4.3c-5.6,-5.5 -10.2,-11.8 -13.7,-18.9c-8.6,0.9 -32.1,4 -44.6,10c-6.1,2.8 -8.3,4.6 -9.1,5.5z" id="svg_9"/>
    </g>
    <g id="svg_10">
     <path class="st1" d="m299.1,113c-12.4,19.8 -34.6,33.1 -60,33.1c-16.5,0 -31.7,-5.7 -43.8,-15.1c-18.5,-5.2 -50.3,-8.4 -62.9,-6c-11.5,2.3 -13.7,0.5 -14.3,-1.3c-0.2,-0.7 -0.3,-1.4 0.2,-2.3l0,0c0,0 4.7,-7.1 23.5,-9.7c0,0 -19.3,0.9 -36.3,6.5c0,0 0,0 0,0c-14.9,4 -21.9,7.6 -23.8,9.4c0.8,0.2 2.4,0.2 5.9,0.2c51.8,-0.4 86.3,2.9 102.8,9.8c5.4,2.2 10,4.4 14,6.3c16.1,7.5 25.8,12.1 54.6,8.3c39.1,-5.1 74.6,-21.1 74.6,-25.4c0.1,-4.2 -12.9,-10.2 -34.5,-13.8z" id="svg_11"/>
    </g>
    <g id="svg_12">
     <path class="st1" d="m393,140.5c0,19 -86.1,34.4 -192.4,34.4c-106.2,0 -192.4,-15.4 -192.4,-34.4c0,-5.7 7.6,-11 21.2,-15.7c13.6,-4.7 33,-8.8 56.6,-11.9c0,0 41.9,-6.6 72.2,-5.1c0,0 -43.7,3.4 -75.4,9.7c-12.9,2.9 -25.7,6.3 -34.7,9.7c-21.2,8.2 -20.1,12.8 -19.8,14.3c0.8,3.2 5.8,4.4 14.8,3.5c19.6,-1.9 99.3,-5.8 131.2,10.2c22.3,11.2 42.6,15.1 66.5,15.1c10.8,0 22.3,-0.8 35,-2.1c35,-3.5 87.8,-13.2 95.3,-23.6c2.5,-3.4 2.9,-7.8 1.4,-12.4c-0.7,-2.1 -1.8,-4.2 -3.3,-6.2l0,-2c15.2,4.9 23.8,10.5 23.8,16.5z" id="svg_13"/>
    </g>
    <path class="st1" d="m363.6,146c-14.1,7.4 -53.7,15.2 -88.1,18.7c-40.1,4.1 -67.8,3.2 -99.4,-12.7c-32.6,-16.4 -113.3,-12.5 -133.1,-10.5c-8.2,0.8 -10.8,-0.5 -11,-0.8c0,-0.9 3.1,-4.6 17.6,-10.2c0.9,-0.3 1.8,-0.7 2.8,-1c0,0 30.4,-11.5 57.6,-14.4c0,0 -19.3,3.2 -30,9.6c-1.6,1.3 -2.5,2.5 -2.3,3.8c0.4,3 5,3 6.5,3c0.8,0 2,0 3.5,0c51.3,-0.4 85.4,2.8 101.4,9.5c5.3,2.2 9.9,4.3 13.9,6.2c12.6,5.9 21.4,10 37.8,10c5.4,0 11.5,-0.4 18.8,-1.4c32.5,-4.3 77.7,-19.7 77.7,-28.9c0,-5.6 -9.4,-10.5 -22,-13.9c8.5,1.1 16.4,2.4 23.7,3.7l0,29.3l24.6,0z" id="svg_14"/>
   </g>
  </g>
  <g id="svg_15">
   <path class="st3" d="m444.1,19.1l0,122.2l-24.6,0l0,-52l-52.5,0l0,52l-24.6,0l0,-122.2l24.6,0l0,50.2l52.5,0l0,-50.2l24.6,0z" id="svg_16"/>
   <path class="st3" d="m561.4,44.3l-60.2,142.8l-26.2,0l21.1,-48.3l-39,-94.5l27.6,0l25.1,67.7l25.5,-67.7l26.1,0z" id="svg_17"/>
   <path class="st3" d="m574.1,66.3c3.9,-7.6 9.3,-13.4 16.1,-17.5c6.8,-4.1 14.3,-6.1 22.7,-6.1c6.3,0 12.4,1.4 18.1,4.1c5.7,2.7 10.3,6.4 13.7,10.9l0,-46l24.9,0l0,129.5l-24.9,0l0,-14.4c-3,4.8 -7.3,8.6 -12.8,11.6c-5.5,2.9 -11.9,4.4 -19.1,4.4c-8.2,0 -15.7,-2.1 -22.5,-6.3c-6.8,-4.2 -12.1,-10.1 -16.1,-17.8c-3.9,-7.6 -5.9,-16.4 -5.9,-26.3c0,-9.8 1.9,-18.5 5.8,-26.1zm67.2,11.2c-2.3,-4.3 -5.5,-7.5 -9.5,-9.8c-4,-2.3 -8.3,-3.4 -12.8,-3.4c-4.6,0 -8.8,1.1 -12.6,3.3c-3.9,2.2 -7,5.5 -9.4,9.7c-2.4,4.3 -3.6,9.3 -3.6,15.1c0,5.8 1.2,10.9 3.6,15.3c2.4,4.4 5.6,7.7 9.5,10.1c3.9,2.3 8.1,3.5 12.6,3.5c4.6,0 8.8,-1.1 12.8,-3.4c4,-2.3 7.1,-5.5 9.5,-9.8c2.3,-4.3 3.5,-9.4 3.5,-15.3c-0.1,-6 -1.2,-11.1 -3.6,-15.3z" id="svg_18"/>
   <path class="st3" d="m730.6,47.3c5.1,-2.9 10.9,-4.4 17.5,-4.4l0,25.7l-6.5,0c-7.7,0 -13.6,1.8 -17.5,5.4c-3.9,3.6 -5.9,9.9 -5.9,18.9l0,48.3l-24.6,0l0,-97l24.6,0l0,15.1c3.2,-5.1 7.3,-9.1 12.4,-12z" id="svg_19"/>
   <path class="st3" d="m782.5,136.6c-7.5,-4.1 -13.4,-10 -17.6,-17.6c-4.3,-7.6 -6.4,-16.3 -6.4,-26.3c0,-9.9 2.2,-18.7 6.6,-26.3c4.4,-7.6 10.4,-13.4 18,-17.6c7.6,-4.1 16.1,-6.2 25.5,-6.2c9.4,0 17.9,2.1 25.5,6.2c7.6,4.1 13.6,10 18,17.6c4.4,7.6 6.6,16.3 6.6,26.3c0,9.9 -2.3,18.7 -6.8,26.3c-4.5,7.6 -10.6,13.4 -18.3,17.6c-7.7,4.1 -16.2,6.2 -25.7,6.2c-9.5,0 -17.9,-2.1 -25.4,-6.2zm37.8,-18.4c3.9,-2.2 7.1,-5.4 9.4,-9.7c2.3,-4.3 3.5,-9.6 3.5,-15.8c0,-9.2 -2.4,-16.3 -7.3,-21.3c-4.9,-5 -10.8,-7.4 -17.8,-7.4c-7,0 -12.9,2.5 -17.6,7.4c-4.7,5 -7.1,12 -7.1,21.3c0,9.2 2.3,16.3 6.9,21.3c4.6,5 10.4,7.4 17.5,7.4c4.4,0.1 8.6,-1 12.5,-3.2z" id="svg_20"/>
  </g>
  <g id="svg_21">
   <g id="svg_22">
    <path class="st4" d="m938.8,142c-12.5,0 -24,-2.8 -34.1,-8.3c-10.2,-5.5 -18.2,-13.3 -24,-23.2c-5.8,-9.8 -8.7,-21.1 -8.7,-33.6c0,-12.5 2.9,-23.8 8.7,-33.7c5.8,-9.9 13.9,-17.7 24,-23.3c10.1,-5.5 21.5,-8.3 33.9,-8.3c14.6,0 27.5,3.5 38.3,10.5c10.9,7 18.5,17 22.7,29.7l1.1,3.3l-33.9,0l-0.7,-1.3c-2.6,-4.7 -6.3,-8.3 -10.9,-10.8c-4.7,-2.5 -10.2,-3.7 -16.5,-3.7c-7,0 -13.2,1.5 -18.6,4.6c-5.3,3 -9.5,7.4 -12.6,13.1c-3,5.7 -4.6,12.4 -4.6,19.9c0,7.7 1.6,14.6 4.7,20.2c3.1,5.6 7.4,10 12.8,13.1c5.5,3.1 12,4.6 19.3,4.6c9,0 16.4,-2.3 22,-6.9c4.9,-4 8.4,-9.5 10.4,-16.4l-42.6,0l0,-23.8l73.2,0l0,24.4c-1.8,8.9 -5.5,17.2 -11.3,24.8c-5.7,7.5 -13.2,13.7 -22.2,18.2c-9,4.6 -19.2,6.9 -30.4,6.9zm-0.1,-125.3c-11.5,0 -22.1,2.6 -31.5,7.7c-9.3,5.1 -16.8,12.3 -22.1,21.4c-5.3,9.1 -8,19.6 -8,31.2c0,11.6 2.7,22 8,31.1c5.3,9.1 12.8,16.2 22.1,21.3c9.4,5.1 20,7.7 31.7,7.7c10.4,0 19.8,-2.1 28.2,-6.3c8.3,-4.2 15.2,-9.8 20.5,-16.8c5.2,-6.9 8.7,-14.4 10.3,-22.5l0,-18.7l-63.2,0l0,13.8l43.9,0l-0.7,3c-2,9.4 -6.4,16.9 -12.9,22.2c-6.6,5.3 -15,8 -25.2,8c-8.2,0 -15.5,-1.8 -21.8,-5.2c-6.3,-3.5 -11.3,-8.6 -14.8,-15c-3.5,-6.4 -5.3,-14 -5.3,-22.6c0,-8.3 1.7,-15.8 5.2,-22.3c3.5,-6.5 8.3,-11.6 14.5,-15.1c6.1,-3.5 13.2,-5.2 21.1,-5.2c7.1,0 13.5,1.5 18.8,4.3c5,2.7 9.1,6.5 12.2,11.5l24,0c-4,-10 -10.5,-18 -19.4,-23.8c-10,-6.4 -22,-9.7 -35.6,-9.7z" id="svg_23"/>
   </g>
   <g id="svg_24">
    <path class="st4" d="m1062.7,142.6c-10,0 -19.1,-2.2 -27.1,-6.5c-8,-4.4 -14.4,-10.6 -18.8,-18.6c-4.5,-8 -6.7,-17.2 -6.7,-27.6c0,-10.5 2.2,-19.8 6.6,-27.7c4.4,-8 10.7,-14.2 18.7,-18.6c7.9,-4.3 17.1,-6.5 27.3,-6.5c9.9,0 18.8,2.1 26.7,6.3c7.9,4.2 14.1,10.2 18.5,17.9c4.3,7.7 6.5,16.6 6.5,26.5c0,3.6 -0.3,7 -0.8,9.9l-0.4,2.1l-72.2,0c0.9,5.1 3,9.1 6.4,12.2c4,3.6 8.8,5.3 14.7,5.3c8.4,0 14.2,-3.4 17.8,-10.4l0.7,-1.4l32.1,0l-1,3.2c-3,9.9 -8.9,18.1 -17.5,24.4c-8.5,6.2 -19.1,9.5 -31.5,9.5zm0,-100.6c-9.4,0 -17.8,2 -25,5.8c-7.1,3.9 -12.7,9.4 -16.7,16.6c-4,7.2 -6,15.7 -6,25.3c0,9.5 2,17.9 6.1,25.1c4,7.2 9.7,12.8 16.9,16.7c7.2,3.9 15.5,5.9 24.7,5.9c11.3,0 20.9,-2.9 28.6,-8.6c6.7,-5 11.6,-11.2 14.5,-18.6l-22.2,0c-4.5,7.8 -11.7,11.8 -21.5,11.8c-7.1,0 -13.2,-2.2 -18.1,-6.6c-4.9,-4.4 -7.7,-10.5 -8.4,-18.2l-0.2,-2.7l73.6,0c0.3,-2.1 0.4,-4.5 0.4,-7c0,-9 -2,-17.1 -5.9,-24c-3.9,-6.9 -9.4,-12.2 -16.5,-16c-7.1,-3.6 -15.3,-5.5 -24.3,-5.5zm25.6,41.2l-52.9,0l0.4,-2.9c1,-7.1 4,-12.8 8.7,-16.9c4.7,-4.1 10.6,-6.1 17.4,-6.1c7.2,0 13.4,2.1 18.4,6.3c5.1,4.3 7.8,10 7.9,17.1l0.1,2.5zm-46.9,-5l41.7,0c-0.6,-4.4 -2.6,-8 -5.9,-10.8c-4.1,-3.5 -9.1,-5.1 -15.2,-5.1c-5.7,0 -10.3,1.6 -14.1,4.9c-3.3,2.7 -5.4,6.3 -6.5,11z" id="svg_25"/>
   </g>
   <g id="svg_26">
    <path class="st4" d="m1174.7,142.6c-10,0 -19.1,-2.2 -27.2,-6.5l0,0c-8.1,-4.4 -14.5,-10.6 -19.1,-18.6c-4.6,-8 -6.9,-17.2 -6.9,-27.6c0,-10.4 2.4,-19.7 7.1,-27.6c4.7,-8 11.3,-14.2 19.5,-18.6c8.1,-4.3 17.3,-6.5 27.3,-6.5c10,0 19.2,2.2 27.3,6.5c8.2,4.4 14.7,10.6 19.5,18.6c4.7,8 7.1,17.3 7.1,27.6c0,10.4 -2.5,19.7 -7.3,27.7c-4.8,8 -11.5,14.2 -19.7,18.6c-8.3,4.2 -17.5,6.4 -27.6,6.4zm0.7,-100.6c-9.2,0 -17.6,2 -25,5.9c-7.4,3.9 -13.3,9.5 -17.5,16.7c-4.3,7.2 -6.4,15.6 -6.4,25.1c0,9.5 2.1,17.9 6.2,25.1c4.1,7.2 9.9,12.8 17.1,16.7l0,0c7.3,3.9 15.6,5.9 24.8,5.9c9.3,0 17.8,-2 25.2,-6c7.4,-3.9 13.4,-9.6 17.8,-16.7c4.4,-7.2 6.6,-15.6 6.6,-25.1c0,-9.5 -2.2,-17.9 -6.4,-25.1c-4.2,-7.2 -10.1,-12.8 -17.5,-16.7c-7.4,-3.8 -15.8,-5.8 -24.9,-5.8zm-0.7,79.1c-7.9,0 -14.5,-2.8 -19.7,-8.2c-5.2,-5.4 -7.8,-13.2 -7.8,-23.1c0,-9.9 2.7,-17.7 8,-23.1c5.3,-5.5 12,-8.2 19.9,-8.2c7.9,0 14.6,2.8 20.1,8.2c5.5,5.4 8.2,13.2 8.2,23.1c0,6.6 -1.3,12.3 -3.9,17c-2.6,4.7 -6.2,8.4 -10.6,10.7l0,0c-4.5,2.4 -9.3,3.6 -14.2,3.6zm0.3,-57.6c-6.6,0 -11.9,2.2 -16.3,6.7c-4.4,4.5 -6.6,11.1 -6.6,19.6c0,8.6 2.2,15.2 6.4,19.6c4.3,4.5 9.6,6.7 16.1,6.7c4.1,0 8.1,-1 11.7,-3l0,0c3.6,-1.9 6.5,-4.9 8.6,-8.8c2.2,-3.9 3.3,-8.9 3.3,-14.6c0,-8.5 -2.3,-15.1 -6.7,-19.6c-4.5,-4.4 -9.9,-6.6 -16.5,-6.6z" id="svg_27"/>
   </g>
  </g>
  <image height="1" id="svg_31" width="0" x="103" xlink:href="./images/logo.svg" y="20"/>
  <image height="0" id="svg_32" width="0" x="27" xlink:href="./images/logo.svg" y="-149"/>
 </g>
</svg>